<svg id="Layer_1" xmlns="http://www.w3.org/2000/svg" xmlns:xlink="http://www.w3.org/1999/xlink" viewBox="0 0 211.2 104.2">
  <style>
    .st0{fill:none;stroke:#A7A9AC;stroke-width:0.48;stroke-miterlimit:10;} .st1{fill:#A7A9AC;} .st2{fill:#EFE89D;} .st3{fill:#6BAAB1;} .st4{fill:#E37C9D;} .st5{fill:#3F4A59;} .st6{fill:#EFABB8;} .st7{fill:#FCBB6D;} .st8{fill:#FFFFFF;} .st9{fill:none;stroke:#A7A9AC;stroke-width:0.4527;stroke-miterlimit:10;} .st10{clip-path:url(#SVGID_2_);} .st11{fill:none;} .st12{clip-path:url(#SVGID_4_);} .st13{fill:#FFFFFF;stroke:#FFFFFF;stroke-width:0.5529;stroke-miterlimit:10;} .st14{opacity:0.3;} .st15{clip-path:url(#SVGID_6_);} .st16{clip-path:url(#SVGID_8_);} .st17{clip-path:url(#SVGID_10_);} .st18{clip-path:url(#SVGID_12_);} .st19{fill:none;stroke:#FFFFFF;stroke-width:4.1915;} .st20{clip-path:url(#SVGID_16_);} .st21{clip-path:url(#SVGID_20_);} .st22{clip-path:url(#SVGID_24_);fill:none;stroke:#FFFFFF;stroke-width:4.1915;} .st23{clip-path:url(#SVGID_26_);} .st24{clip-path:url(#SVGID_30_);fill:none;stroke:#FFFFFF;stroke-width:4.1915;} .st25{clip-path:url(#SVGID_32_);} .st26{clip-path:url(#SVGID_36_);fill:none;stroke:#FFFFFF;stroke-width:4.1915;} .st27{clip-path:url(#SVGID_38_);} .st28{clip-path:url(#SVGID_42_);fill:none;stroke:#FFFFFF;stroke-width:4.1915;} .st29{clip-path:url(#SVGID_44_);} .st30{clip-path:url(#SVGID_48_);fill:none;stroke:#FFFFFF;stroke-width:4.1915;} .st31{clip-path:url(#SVGID_50_);} .st32{clip-path:url(#SVGID_54_);} .st33{clip-path:url(#SVGID_58_);fill:none;stroke:#FFFFFF;stroke-width:4.1915;} .st34{clip-path:url(#SVGID_60_);} .st35{clip-path:url(#SVGID_64_);fill:none;stroke:#FFFFFF;stroke-width:4.1915;} .st36{clip-path:url(#SVGID_66_);} .st37{clip-path:url(#SVGID_70_);fill:none;stroke:#FFFFFF;stroke-width:4.1915;} .st38{clip-path:url(#SVGID_72_);} .st39{clip-path:url(#SVGID_76_);fill:none;stroke:#FFFFFF;stroke-width:4.1915;} .st40{clip-path:url(#SVGID_78_);} .st41{clip-path:url(#SVGID_82_);fill:none;stroke:#FFFFFF;stroke-width:3.1102;} .st42{clip-path:url(#SVGID_84_);} .st43{clip-path:url(#SVGID_88_);fill:none;stroke:#FFFFFF;stroke-width:3.1102;} .st44{clip-path:url(#SVGID_90_);} .st45{clip-path:url(#SVGID_94_);fill:none;stroke:#FFFFFF;stroke-width:3.1102;} .st46{clip-path:url(#SVGID_96_);} .st47{clip-path:url(#SVGID_100_);fill:none;stroke:#FFFFFF;stroke-width:3.1102;} .st48{clip-path:url(#SVGID_102_);} .st49{clip-path:url(#SVGID_106_);fill:none;stroke:#FFFFFF;stroke-width:3.1102;}
  </style>
  <defs>
    <path id="SVGID_1_" d="M-176 549.7H-5.6v170.4H-176z"/>
  </defs>
  <clipPath id="SVGID_2_">
    <use xlink:href="#SVGID_1_" overflow="visible"/>
  </clipPath>
  <path class="st8" d="M43.2 49.4c.3-.6.5-.7.8-.2.1.3.1.6.2 1-.3.6-.7 1.5-1.3 2.8-.6 1.3-1.3 2.8-2.1 4.4-.8 1.6-1.7 3.3-2.7 5.1-1 1.8-2.1 3.3-3.3 4.7-1.2 1.4-2.4 2.6-3.7 3.5-1.3.9-2.6 1.3-4.1 1.3-1.9 0-3.6-.6-5.1-1.9-1.4-1.3-2.6-3-3.6-5.1-1-2.2-1.8-4.7-2.4-7.5-.6-2.9-1-6-1.2-9.3-1.3 2.7-2.6 5-4 6.9-1.4 1.9-3 2.8-4.9 2.8-1.6 0-2.8-.5-3.5-1.6-.8-1-1.2-2.3-1.3-3.8-.1-1.5.1-3.2.7-5 .5-1.8 1.3-3.5 2.3-5 1-1.5 2.2-2.8 3.7-3.8 1.4-1 3-1.6 4.7-1.6.8 0 1.6.2 2.6.5.2-4.6.8-9.1 1.6-13.6.9-4.5 2-8.5 3.3-12 1.3-3.5 2.9-6.3 4.7-8.5C26.4 1.4 28.5.3 30.7.3c1.9 0 3.4.7 4.7 2.1 1.3 1.4 1.7 3.7 1.3 7-.4 3.3-1.9 7.6-4.6 12.9-2.7 5.3-6.9 11.9-12.8 19.7-.1 3.6 0 7 .4 10.3.3 3.3.8 6.2 1.5 8.7.7 2.5 1.7 4.5 2.8 6 1.2 1.5 2.6 2.3 4.4 2.3 1.6 0 3.1-.8 4.6-2.3 1.5-1.5 2.9-3.4 4.2-5.5 1.3-2.1 2.5-4.4 3.5-6.7 1.1-2 1.9-3.9 2.5-5.4zm-36.3 7c.9 0 1.8-.4 2.6-1.2.8-.8 1.5-1.7 2.2-2.8l1.8-3.3c.5-1.1 1-2.1 1.3-2.9-.1-2.3-.1-4.6 0-7-.8-.6-1.7-.9-2.8-.9-.8 0-1.6.4-2.4 1.3-.8.9-1.5 2-2.2 3.3-.6 1.3-1.2 2.8-1.7 4.4-.5 1.6-.8 3-.9 4.4-.1 1.3 0 2.4.3 3.3.4 1 1 1.4 1.8 1.4zM32.1 2.3c-1.8 0-3.4 1.1-4.9 3.3-1.5 2.2-2.8 5.1-3.9 8.7-1.1 3.6-2 7.6-2.7 12.1-.7 4.5-1.1 9-1.3 13.5 2.1-2.4 4-4.9 5.9-7.7 1.8-2.8 3.5-5.6 4.9-8.4 1.4-2.8 2.6-5.5 3.6-8.1.9-2.6 1.5-4.9 1.8-6.9.3-2 .1-3.6-.4-4.8-.6-1.1-1.6-1.7-3-1.7z"/>
  <path class="st8" d="M27 72.5c-2.1 0-3.9-.7-5.4-2-1.5-1.3-2.7-3.1-3.8-5.3-1-2.2-1.8-4.8-2.4-7.6-.5-2.3-.8-4.8-1-7.5-1.1 2-2.2 3.8-3.3 5.4-1.5 2-3.3 3-5.3 3-1.7 0-3.1-.6-4-1.8C1 55.6.5 54.2.4 52.6c-.1-1.6.2-3.3.7-5.2.5-1.9 1.3-3.6 2.3-5.1 1-1.5 2.3-2.9 3.8-3.9 1.5-1.1 3.2-1.6 5-1.6.7 0 1.4.1 2.1.4.2-4.4.8-8.7 1.6-13 .9-4.5 2-8.6 3.3-12.1 1.3-3.5 3-6.5 4.8-8.6C26.1 1.1 28.3 0 30.7 0c2 0 3.7.8 5.1 2.3 1.4 1.5 1.9 4 1.5 7.4-.4 3.3-2 7.7-4.6 13.1-2.7 5.2-7 11.9-12.9 19.6-.1 3.5.1 6.9.4 10.1.3 3.3.8 6.2 1.5 8.6.7 2.4 1.6 4.4 2.8 5.9 1.1 1.4 2.4 2.1 4 2.1 1.4 0 2.9-.7 4.3-2.2 1.5-1.5 2.9-3.3 4.1-5.4 1.3-2.1 2.4-4.3 3.5-6.6 1-2.3 1.8-4.2 2.4-5.7.1-.3.4-.9.9-.9.3 0 .6.2.8.6.1.4.2.7.2 1.1v.2l-.1.2c-.3.6-.7 1.5-1.3 2.8-.6 1.3-1.3 2.8-2.1 4.4-.8 1.6-1.7 3.3-2.7 5.1-1 1.8-2.1 3.4-3.3 4.8-1.2 1.4-2.5 2.6-3.8 3.6-1.4.9-2.8 1.4-4.4 1.4zm-11.8-26l.1 1.7c.2 3.3.6 6.4 1.2 9.2.6 2.8 1.3 5.3 2.3 7.4 1 2.1 2.2 3.7 3.5 5 1.3 1.2 2.9 1.8 4.7 1.8v.5-.5c1.3 0 2.6-.4 3.8-1.3 1.3-.9 2.5-2 3.6-3.4 1.2-1.4 2.2-2.9 3.2-4.7 1-1.7 1.9-3.4 2.7-5 .8-1.6 1.5-3.1 2-4.4.5-1.2.9-2.1 1.2-2.7 0-.1 0-.2-.1-.3-.6 1.5-1.4 3.3-2.4 5.5-1 2.3-2.2 4.6-3.5 6.7-1.3 2.2-2.7 4.1-4.3 5.6-1.6 1.6-3.3 2.5-5 2.5-1.9 0-3.5-.8-4.8-2.5-1.2-1.6-2.2-3.6-2.9-6.2-.7-2.5-1.2-5.5-1.6-8.8-.3-3.3-.4-6.8-.4-10.4V42l.1-.1c5.8-7.7 10.1-14.4 12.8-19.6 2.6-5.3 4.2-9.5 4.5-12.7.4-3.1 0-5.3-1.2-6.6-.9-1.4-2.3-2-4-2-2.1 0-4 1-5.7 3-1.8 2.1-3.4 4.9-4.7 8.3-1.3 3.5-2.4 7.5-3.3 11.9-.9 4.4-1.4 9-1.6 13.5v.7l-.6-.2c-.9-.3-1.7-.5-2.4-.5-1.6 0-3.1.5-4.4 1.5-1.4 1-2.6 2.2-3.5 3.7-1 1.4-1.7 3.1-2.2 4.9-.5 1.8-.7 3.4-.6 4.8-.1 1.4.3 2.6 1 3.5.7.9 1.7 1.4 3.1 1.4 1.3 0 2.4-.5 3.4-1.4-.7.5-1.5.8-2.3.8-1.1 0-1.9-.6-2.2-1.7-.3-1-.4-2.1-.3-3.5.1-1.4.4-2.9.9-4.5s1-3.1 1.7-4.4c.7-1.4 1.4-2.5 2.2-3.4.9-1 1.8-1.5 2.7-1.5 1.2 0 2.2.3 3.1 1l.2.2v.3c-.1 2.3-.1 4.7 0 6.9v.1l-.1.1c.1-.1.1 0 .1 0zM12 38.3v.5c-.6 0-1.3.4-2 1.2-.8.9-1.5 1.9-2.1 3.2-.6 1.3-1.2 2.7-1.6 4.3-.5 1.5-.7 3-.8 4.3-.1 1.3 0 2.3.2 3.1.2.7.6 1 1.2 1 .8 0 1.5-.3 2.2-1 .8-.8 1.5-1.7 2.1-2.7l1.8-3.3c.5-1.1.9-2 1.3-2.8-.1-2.2-.1-4.4 0-6.6-.7-.4-1.4-.6-2.3-.6v-.6zm6.8 3v-1.4c.1-4.5.6-9.1 1.3-13.6.7-4.5 1.6-8.6 2.7-12.2 1.1-3.6 2.5-6.6 3.9-8.8C28.3 2.9 30 1.7 32 1.7c1.6 0 2.8.7 3.4 2.1.6 1.3.7 3 .5 5.1-.3 2-.9 4.4-1.8 7-.9 2.6-2.1 5.3-3.6 8.1-1.4 2.8-3.1 5.6-4.9 8.4-1.8 2.8-3.8 5.4-5.9 7.8l-.9 1.1zm13.3-39v.5c-1.6 0-3.1 1-4.5 3.1-1.4 2.2-2.7 5.1-3.8 8.6-1.1 3.5-2 7.6-2.7 12-.6 4-1 8-1.2 12 1.7-2 3.4-4.3 4.9-6.6 1.8-2.8 3.5-5.6 4.9-8.3 1.4-2.8 2.6-5.5 3.5-8 .9-2.5 1.5-4.8 1.8-6.8.2-1.9.1-3.4-.4-4.5-.5-1-1.3-1.5-2.5-1.5v-.5z"/>
  <path class="st8" d="M55.1 46.6c0 1.2-.3 2.2-.9 3.1-.6.8-1.3 1.5-2.1 2s-1.7.9-2.7 1.2c-1 .3-1.8.4-2.6.5-.1 1.4 0 2.7.1 4 .1 1.3.4 2.5.8 3.5s.9 1.9 1.5 2.5c.6.6 1.3 1 2.2 1 1.1 0 2.4-.6 4-1.9 1.6-1.3 3.2-2.7 4.8-4.3 1.6-1.6 3.1-3.2 4.3-4.7 1.3-1.5 2-2.5 2.3-2.9.3-.4.5-.5.5-.5.1 0 .1.1.2.2v1c-1.4 1.7-2.9 3.4-4.3 5.2-1.2 1.6-2.7 3.2-4.2 4.5-1.5 1.4-3 2.5-4.5 3.4-1.5.9-2.9 1.3-4.4 1.3-.8 0-1.7-.3-2.6-.8-.9-.5-1.8-1.3-2.6-2.3-.8-1-1.5-2.3-2.1-3.9-.6-1.5-.9-3.4-.9-5.5 0-3.4.7-6 2.1-7.7 1.4-1.7 2.9-2.7 4.5-3 1.6-.3 3.2-.1 4.5.7 1.5.7 2.1 1.9 2.1 3.4zM50.6 44c-1 0-1.8.9-2.5 2.6-.7 1.8-1.1 3.8-1.2 6.1 1.9-.2 3.4-.8 4.4-1.8 1-1 1.6-2 1.8-3 .2-1 .1-1.9-.3-2.7-.5-.8-1.2-1.2-2.2-1.2z"/>
  <path class="st8" d="M50.2 66.2c-.9 0-1.8-.3-2.8-.8-1-.5-1.9-1.4-2.8-2.4-.9-1.1-1.6-2.4-2.2-4-.6-1.6-.9-3.5-.9-5.7 0-3.5.7-6.2 2.2-8 1.4-1.8 3.1-2.8 4.8-3.2 1.8-.3 3.4-.1 4.9.7 1.5.8 2.3 2.1 2.3 3.8 0 1.3-.3 2.4-1 3.4-.6.9-1.4 1.6-2.2 2.2-.9.6-1.8 1-2.8 1.2-.8.2-1.6.4-2.3.4 0 1.2 0 2.4.1 3.5.1 1.2.4 2.4.8 3.4s.8 1.8 1.4 2.4c.5.5 1.1.8 1.8.8 1 0 2.2-.6 3.7-1.8 1.6-1.2 3.2-2.7 4.8-4.3 1.6-1.6 3-3.2 4.3-4.6 1.2-1.5 2-2.4 2.3-2.9.5-.6.7-.8 1-.8.2 0 .5.1.7.5l.1.1v1.3L64 56.7c-1.5 1.7-3 3.3-4.5 4.7-1.5 1.4-3.1 2.6-4.6 3.4-1.7 1-3.2 1.4-4.7 1.4zM50 42.9c-.4 0-.9 0-1.3.1-1.5.3-2.9 1.2-4.2 2.8-1.3 1.6-1.9 4.1-1.9 7.4 0 2.1.3 3.9.8 5.4.6 1.5 1.2 2.7 2 3.7s1.6 1.7 2.5 2.2c.9.5 1.6.7 2.3.7v.5-.5c1.3 0 2.7-.4 4.1-1.2 1.4-.8 2.9-2 4.4-3.3 1.4-1.3 2.8-2.8 4.2-4.4-.7.7-1.4 1.5-2.1 2.2-1.6 1.6-3.3 3.1-4.9 4.3-1.7 1.3-3.1 2-4.3 2-1 0-1.9-.4-2.6-1.1-.7-.7-1.2-1.6-1.6-2.7-.4-1.1-.7-2.3-.8-3.6-.1-1.3-.2-2.7-.1-4.1v-.7c.1-2.3.6-4.4 1.3-6.2.8-2 1.8-2.9 3-2.9s2.1.5 2.6 1.5c.5.9.6 2 .4 3.1-.2 1.1-.9 2.2-2 3.2-.2.2-.3.3-.5.4.3-.1.6-.3.8-.5.8-.5 1.4-1.1 2-1.9.5-.7.8-1.7.8-2.8 0-1.3-.6-2.3-1.8-3-1.1-.4-2.1-.6-3.1-.6zm.6 1.1v.5c-.8 0-1.5.8-2.1 2.3-.6 1.5-1 3.3-1.2 5.3 1.5-.2 2.7-.8 3.5-1.6.9-.9 1.5-1.8 1.7-2.7.2-.9.1-1.7-.3-2.4-.3-.7-.9-1-1.7-1l.1-.4z"/>
  <path class="st8" d="M95.8 49.6c-1.2 2.4-2.4 4.8-3.6 7.4-1.2 2.5-2.4 4.9-3.5 6.9-1.2 2.1-2.3 3.8-3.4 5.1-1.1 1.3-2.2 2-3.3 2-1.7 0-2.8-.7-3.3-2.1-.6-1.4-.9-3.1-.9-5.1 0-2 .1-4.1.4-6.2.3-2.2.6-4.1.8-5.6-1.3 2.7-2.6 5.1-4 7-1.4 2-3 3-4.8 3-1.6 0-2.8-.5-3.5-1.6-.8-1-1.2-2.3-1.3-3.9-.1-1.5.1-3.2.7-5 .5-1.8 1.3-3.5 2.3-5 1-1.5 2.2-2.8 3.7-3.9 1.4-1 3-1.6 4.7-1.6.8 0 1.6.2 2.4.5.8.3 1.5.7 2.1 1.2.4.4.4.9.3 1.4-.2.5-.5.5-.9.1-.5-.6-1.1-1.1-1.8-1.5-.7-.4-1.5-.6-2.4-.6-.8 0-1.6.4-2.4 1.3-.8.9-1.5 2-2.2 3.3-.6 1.3-1.2 2.8-1.7 4.3s-.8 3-.9 4.3c-.1 1.3 0 2.4.3 3.3.3.9.9 1.3 1.7 1.3 1 0 1.9-.5 2.8-1.4.9-1 1.6-2.1 2.3-3.3.7-1.2 1.3-2.4 1.7-3.7.5-1.2.9-2.1 1.2-2.7.1-.1.1-.3.2-.4 0-.1.1-.2.3-.4.4-.4 1-.3 1.8.1s1.3.9 1.5 1.5c.1.4.2 1.2.1 2.4-.1 1.1-.3 2.4-.5 3.9-.3 1.4-.5 2.9-.7 4.5-.2 1.6-.4 3-.5 4.3-.1 1.3-.1 2.3 0 3.2.1.8.5 1.2 1.1 1.2.6 0 1.4-.5 2.3-1.6.9-1.1 1.9-2.6 3-4.5s2.2-4.1 3.5-6.7c1.3-2.5 2.6-5.3 3.9-8.2l.5 1.5z"/>
  <path class="st8" d="M82 71.5c-1.9 0-3.1-.8-3.8-2.4-.6-1.4-.9-3.2-.9-5.2s.1-4.1.4-6.3c.1-.9.3-1.8.4-2.6-.9 1.6-1.8 3.1-2.7 4.4-1.5 2.1-3.2 3.2-5.2 3.2-1.7 0-3.1-.6-4-1.8-.8-1.1-1.3-2.5-1.4-4.2-.1-1.6.2-3.3.7-5.2.5-1.8 1.3-3.6 2.3-5.1 1-1.6 2.3-2.9 3.8-4s3.2-1.6 5-1.6c.9 0 1.7.2 2.6.5.9.3 1.6.8 2.2 1.3.5.6.6 1.3.4 1.9-.2.6-.6.7-.9.7-.3 0-.6-.1-.9-.4-.5-.6-1-1-1.7-1.4-.6-.3-1.3-.5-2.2-.5-.6 0-1.3.4-2 1.2-.8.9-1.5 1.9-2.1 3.2-.6 1.3-1.2 2.7-1.6 4.2-.5 1.5-.7 2.9-.8 4.2-.1 1.3 0 2.3.2 3.1.2.7.6 1 1.2 1 .9 0 1.7-.4 2.4-1.3.8-.9 1.6-2 2.3-3.2.7-1.2 1.2-2.4 1.7-3.6.5-1.3.9-2.2 1.3-2.8 0-.1.1-.2.1-.3.1-.2.2-.4.4-.6.7-.6 1.4-.5 2.4 0 .9.5 1.5 1.1 1.7 1.8.2.5.2 1.4.1 2.6-.1 1.2-.3 2.5-.5 3.9s-.5 2.9-.7 4.5c-.2 1.6-.4 3-.5 4.3-.1 1.2-.1 2.3 0 3 .1.8.5.8.6.8.3 0 .9-.2 1.9-1.4.9-1 1.9-2.5 2.9-4.4 1.1-1.9 2.2-4.1 3.5-6.6 1.3-2.5 2.6-5.3 3.9-8.2l.4-.9 1.1 2.2-.1.2c-1.2 2.3-2.4 4.8-3.6 7.3-1.2 2.5-2.4 4.9-3.5 7-1.2 2.1-2.3 3.8-3.5 5.2-.8 1.6-2.1 2.3-3.3 2.3zm-2.1-22.3l-.4 2.9c-.2 1.6-.5 3.5-.8 5.7-.3 2.2-.5 4.2-.4 6.2 0 1.9.3 3.5.9 4.9.5 1.2 1.4 1.8 2.9 1.8v.5-.5c.9 0 1.9-.6 2.9-1.8.9-1 1.8-2.3 2.7-3.8-.8 1.4-1.6 2.5-2.3 3.3-1 1.2-1.9 1.8-2.7 1.8-.5 0-1.3-.2-1.6-1.7-.2-.9-.2-2-.1-3.3.1-1.3.3-2.8.5-4.3.2-1.6.5-3.1.7-4.5.2-1.4.4-2.7.5-3.8.1-1.3.1-1.9 0-2.2-.2-.4-.6-.9-1.3-1.2-.6-.3-1-.4-1.3-.2-.1-.1-.1 0-.1 0s-.1.1-.1.2zm-3.2-7.6c-1.6 0-3.1.5-4.4 1.5-1.4 1-2.6 2.3-3.5 3.7-1 1.5-1.7 3.1-2.2 4.9-.5 1.7-.7 3.4-.6 4.8.1 1.4.5 2.6 1.2 3.6.7.9 1.7 1.4 3.1 1.4 1.4 0 2.6-.6 3.6-1.7-.8.7-1.6 1-2.5 1-.8 0-1.8-.3-2.2-1.7-.3-1-.4-2.1-.3-3.5.1-1.4.4-2.8.9-4.4.5-1.6 1-3 1.7-4.4.7-1.4 1.4-2.5 2.2-3.4.9-1 1.8-1.5 2.7-1.5 1 0 1.9.2 2.7.7.7.4 1.4.9 1.9 1.6l.1.1c.1-.3.1-.6-.2-.9-.5-.4-1.1-.8-1.9-1.1-.9-.5-1.6-.7-2.3-.7z"/>
  <path class="st8" d="M94.4 50.6c-.7-1-1.3-2.1-1.8-3.3-.5-1.2-.9-2.5-1.1-3.8-.1-.9-.1-2.2 0-3.7s.5-3 .9-4.4c.5-1.4 1.1-2.6 2-3.5.9-.9 2-1.3 3.3-1.2 1.8.4 2.8 1.5 3.1 3.2.2 1.7.1 3.6-.4 5.7s-1.2 4.2-2.2 6.2c-1 2-1.8 3.5-2.4 4.6.4.6 1 1.1 1.8 1.6s1.5 1 2.2 1.6c.7.5 1.3 1.1 1.8 1.8.5.6.7 1.4.6 2.4-.4 2.1-.9 4.3-1.3 6.7-.4 2.4-.8 4.6-1 6.7-.2 2-.3 3.8-.2 5.2.1 1.4.4 2.1 1 2.1.4 0 1-.5 1.9-1.4.9-1 1.9-2.2 3.1-3.8 1.1-1.6 2.4-3.4 3.6-5.4 1.3-2 2.5-4.1 3.7-6.3 1.2-2.1 2.3-4.3 3.3-6.3 1-2.1 1.7-3.9 2.3-5.6.3-.2.5-.2.6.1.1.3.2.6.1 1-.5 1.3-1.2 2.9-2.2 4.8-.9 1.9-2 3.9-3.1 5.9-1.2 2-2.4 4.1-3.6 6.2-1.3 2.1-2.5 4-3.6 5.8-1.1 1.8-2.2 3.3-3.2 4.5-1 1.3-1.7 2.1-2.2 2.5-.9.7-1.8 1-2.5.9-.8-.1-1.4-.5-1.9-1.2-.5-.6-.9-1.4-1.2-2.4-.3-.9-.4-1.8-.4-2.6 0-.6.1-1.7.2-3.1.1-1.4.3-3 .6-4.7.3-1.7.5-3.5.8-5.4.3-1.9.6-3.7.9-5.3.1-.8.1-1.4 0-1.8-.1-.4-.2-.8-.5-1.1-.3-.4-.6-.8-1.1-1.2-.7-.5-1.3-1.1-1.9-2zm3-18.6c-1-.1-1.8.3-2.5 1.2-.7.9-1.2 1.9-1.6 3.1-.4 1.2-.6 2.5-.7 3.8-.1 1.3-.1 2.4 0 3.2.4 2.2 1.2 4.3 2.4 6.1.4-.8 1.1-2.1 1.9-3.8.9-1.8 1.6-3.6 2.1-5.5s.8-3.6.7-5.2c-.1-1.6-.8-2.5-2.3-2.9z"/>
  <path class="st8" d="M99.2 81.8h-.5c-.9-.2-1.6-.6-2.2-1.4-.6-.7-1-1.6-1.3-2.5-.3-1-.4-1.9-.4-2.7 0-.7.1-1.7.2-3.1.1-1.4.4-3 .6-4.7.3-1.7.5-3.5.8-5.4.3-1.9.6-3.7.9-5.3.1-.7.1-1.3 0-1.6-.1-.3-.2-.6-.4-.9-.2-.3-.6-.7-1-1.1-.5-.5-1.1-1.1-1.8-2-.7-1-1.4-2.2-1.9-3.4-.5-1.2-.9-2.5-1.1-3.9-.1-1-.1-2.2 0-3.8.2-1.5.5-3 .9-4.5.5-1.5 1.2-2.7 2.1-3.7 1-1 2.2-1.5 3.8-1.3 2.1.5 3.2 1.7 3.5 3.6.3 1.7.1 3.7-.4 5.9-.5 2.1-1.3 4.3-2.3 6.3-.9 1.8-1.7 3.3-2.3 4.4.4.4.9.9 1.4 1.2.8.5 1.5 1 2.2 1.6.8.6 1.4 1.2 1.9 1.9s.8 1.6.7 2.7c-.4 2.1-.9 4.4-1.3 6.8-.4 2.4-.8 4.6-1 6.6-.2 2-.3 3.7-.2 5.1.1 1.3.3 1.6.5 1.6 0 0 .4-.1 1.5-1.3.9-.9 1.9-2.2 3-3.8 1.1-1.6 2.3-3.4 3.6-5.4 1.2-2 2.5-4.1 3.7-6.3 1.2-2.1 2.3-4.3 3.3-6.3s1.7-3.9 2.3-5.5v-.1l.1-.1c.2-.2.4-.2.7-.2.2 0 .5.1.7.5.2.4.3.8.2 1.4v.1c-.5 1.3-1.2 2.9-2.2 4.8-.9 1.9-2 3.9-3.1 5.9-1.2 2.1-2.4 4.2-3.6 6.2-1.2 2.1-2.5 4.1-3.6 5.8-1.1 1.7-2.2 3.3-3.2 4.5-1 1.3-1.7 2.1-2.3 2.6-.9.5-1.7.8-2.5.8zm-2-50.5c-1 0-1.8.3-2.4 1-.8.9-1.4 2-1.9 3.3-.5 1.4-.8 2.8-.9 4.2-.1 1.5-.1 2.6 0 3.5.2 1.3.6 2.6 1 3.7.5 1.1 1.1 2.2 1.8 3.2.6.8 1.2 1.4 1.6 1.8.5.5.9.9 1.2 1.3.3.4.5.9.6 1.3.1.4.1 1.1 0 1.9-.3 1.7-.6 3.5-.9 5.4-.3 1.9-.6 3.7-.8 5.4-.2 1.7-.4 3.2-.6 4.7-.1 1.4-.2 2.4-.2 3 0 .7.1 1.6.4 2.4.3.9.6 1.6 1.1 2.2.5.6 1 .9 1.6 1 .6.1 1.3-.1 2.1-.8.5-.4 1.2-1.2 2.1-2.4 1-1.2 2-2.8 3.2-4.5.3-.4.5-.8.8-1.2-.4.6-.8 1.1-1.2 1.6-1.2 1.6-2.2 2.9-3.1 3.9-1.3 1.4-1.9 1.6-2.2 1.6-1.3 0-1.4-1.9-1.5-2.6-.1-1.4 0-3.2.2-5.2s.5-4.3 1-6.7c.4-2.4.9-4.7 1.3-6.7.1-.8-.1-1.4-.5-2-.4-.6-1-1.2-1.7-1.7s-1.4-1.1-2.2-1.5c-.8-.5-1.4-1.1-1.9-1.7l-.2-.3.2-.3c.6-1.1 1.4-2.6 2.4-4.6 1-2 1.7-4 2.2-6.1.5-2 .6-3.9.4-5.5-.2-1.5-1.1-2.4-2.7-2.8 0 .2-.1.2-.3.2zm21.6 19c-.3.9-.7 1.8-1.1 2.9.4-1 .8-1.8 1.1-2.6v-.3zm-23.7.1l-.5-.7c-1.2-1.9-2-4-2.4-6.3-.1-.8-.2-2-.1-3.3.1-1.4.4-2.7.7-3.9.4-1.3.9-2.4 1.7-3.3.8-1 1.8-1.5 3-1.4 1.7.4 2.7 1.6 2.8 3.4.1 1.6-.1 3.4-.7 5.4-.5 1.9-1.3 3.8-2.1 5.6-.9 1.8-1.5 3-2 3.8l-.4.7zm2.1-17.9c-.8 0-1.4.3-1.9 1-.6.8-1.1 1.8-1.5 2.9-.3 1.2-.6 2.4-.7 3.7-.1 1.3-.1 2.3 0 3 .4 1.8 1 3.6 1.8 5.2l1.5-3c.8-1.7 1.5-3.5 2.1-5.4.5-1.8.7-3.5.6-5-.1-1.4-.7-2.1-1.9-2.5.1.1.1.1 0 .1z"/>
  <path class="st8" d="M148.2 50.2c-.3.6-.7 1.6-1.3 3.2-.6 1.5-1.3 3.3-2.2 5.2-.9 1.9-1.8 4-2.9 6.1-1.1 2.1-2.2 4-3.5 5.7-1.3 1.7-2.6 3.2-3.9 4.3-1.4 1.1-2.8 1.7-4.2 1.7-2.5 0-4.6-1.1-6.2-3.2-1.6-2.2-3-5-3.9-8.6-1-3.6-1.6-7.6-1.9-12.1-.3-4.5-.3-9.1.1-13.8.3-4.7.9-9.3 1.8-13.8s2-8.5 3.3-12.1c1.3-3.5 2.9-6.4 4.6-8.5 1.8-2.1 3.7-3.2 5.9-3.2 2.1 0 3.8.8 5.3 2.4 1.4 1.6 1.9 4.3 1.5 8-.4 3.7-2 8.6-4.7 14.7s-7.2 13.6-13.5 22.5c.1 3.4.3 6.7.6 9.7.4 3 .9 5.7 1.7 8.1.8 2.3 1.7 4.2 2.8 5.5 1.1 1.3 2.5 2 4.1 2 1 0 2.1-.5 3.2-1.4 1.1-.9 2.2-2.1 3.2-3.6s2-3.1 3-5 1.9-3.7 2.6-5.5c.8-1.8 1.5-3.5 2.1-5.1.6-1.6 1.1-2.9 1.4-3.9.3-.7.6-.8.9-.2 0 .2.1.5.1.9zM135.3 3.3c-1.9 0-3.7 1.3-5.2 3.9-1.5 2.6-2.9 5.9-4 10-1.2 4.1-2 8.7-2.7 13.7-.6 5.1-1 10.1-1 15 1.9-2.2 3.9-4.8 5.8-7.8s3.6-6 5.2-9.2c1.5-3.2 2.9-6.3 3.9-9.4 1.1-3.1 1.8-5.8 2.1-8.2.3-2.4.1-4.3-.4-5.8-.7-1.4-1.9-2.2-3.7-2.2z"/>
  <path class="st8" d="M130.1 76.9c-2.7 0-4.9-1.2-6.6-3.4-1.7-2.2-3-5.1-4-8.7-1-3.6-1.6-7.7-1.9-12.2-.3-4.5-.3-9.2.1-13.9.3-4.7.9-9.4 1.8-13.9s2-8.6 3.3-12.2c1.3-3.6 2.9-6.5 4.7-8.7 1.8-2.3 3.9-3.4 6.2-3.4 2.2 0 4.1.9 5.7 2.6 1.5 1.7 2.1 4.5 1.7 8.4-.4 3.8-2 8.8-4.7 14.9S129.2 40 123 48.8c.1 3.4.3 6.6.6 9.5.3 3 .9 5.7 1.6 8 .7 2.3 1.7 4 2.7 5.3 1.1 1.2 2.3 1.8 3.7 1.8.9 0 1.8-.4 2.9-1.3 1.1-.9 2.1-2.1 3.1-3.5s2-3.1 3-4.9c1-1.8 1.8-3.7 2.6-5.5.8-1.8 1.5-3.5 2.1-5.1.6-1.6 1.1-2.9 1.3-3.9.1-.3.4-1 1-1 .3 0 .6.2.8.7.2.4.3.8.3 1.2v.1l-.1.1c-.3.6-.7 1.6-1.3 3.1-.6 1.5-1.3 3.3-2.2 5.2-.9 1.9-1.9 4-2.9 6.1-1.1 2.1-2.3 4.1-3.5 5.8-1.3 1.7-2.6 3.2-4 4.4-1.6 1.4-3.1 2-4.6 2zm3.6-75.4c-2 0-3.8 1-5.5 3-1.7 2.1-3.3 4.9-4.6 8.4-1.3 3.5-2.4 7.5-3.3 12-.9 4.5-1.5 9.1-1.8 13.8-.3 4.6-.4 9.3-.1 13.8.3 4.5.9 8.5 1.8 12s2.2 6.3 3.8 8.4c1.6 2 3.5 3 5.8 3v.5-.5c1.3 0 2.6-.5 3.9-1.6 1.3-1.1 2.6-2.5 3.8-4.2.4-.5.8-1.1 1.2-1.7-.2.3-.4.6-.6.8-1.1 1.5-2.2 2.7-3.3 3.7-1.2 1-2.4 1.5-3.5 1.5-1.7 0-3.2-.7-4.5-2.2-1.2-1.4-2.2-3.3-2.9-5.7-.8-2.4-1.3-5.1-1.7-8.2-.4-3-.6-6.3-.6-9.8v-.2l.1-.1c2.7-3.9 5.1-7.5 7.2-10.9-.2.3-.4.7-.6 1-1.9 3-3.9 5.6-5.8 7.8l-.9 1v-1.4c.1-4.9.4-10 1-15.1s1.5-9.7 2.7-13.8c1.2-4.1 2.5-7.5 4.1-10.1 1.6-2.7 3.5-4.1 5.6-4.1 2 0 3.4.9 4 2.5.6 1.5.8 3.6.5 6.1-.3 2.4-1 5.2-2.1 8.3-1.1 3.1-2.4 6.3-4 9.4-.9 1.9-1.9 3.7-2.9 5.5 1.9-3.2 3.4-6.1 4.6-8.7 2.7-6 4.3-10.9 4.7-14.6.4-3.6-.1-6.1-1.4-7.6-1.1-1.3-2.7-2-4.7-2zm13.9 48.1c-.3 1-.7 2.3-1.3 3.9 0-.1.1-.2.1-.3.6-1.4 1-2.5 1.3-3.1 0-.2-.1-.4-.1-.5zM135.3 3.3v.5c-1.7 0-3.3 1.2-4.8 3.6-1.5 2.5-2.9 5.9-4 9.9s-2 8.6-2.6 13.6c-.6 4.5-.9 9.1-1 13.5 1.6-2 3.2-4.2 4.8-6.7 1.9-2.9 3.6-6 5.1-9.1 1.5-3.1 2.8-6.2 3.9-9.3 1.1-3 1.7-5.8 2-8.1.3-2.3.1-4.2-.4-5.6-.5-1.3-1.5-1.9-3.1-1.9l.1-.4z"/>
  <path class="st8" d="M189.4 49.5c.2 0 .6 0 1 .1.5.1.9.2 1.4.4.5.2.8.4 1.1.6.3.3.4.5.3.8-.1.4-.4.5-.8.3-.6-.2-1.1-.4-1.7-.7-.5-.3-1.2-.4-2-.4-2.3 0-4.4.7-6.4 2.1-2 1.4-3.9 3-5.7 4.9-1.8 1.9-3.6 3.9-5.4 5.9-1.8 2-3.6 3.6-5.4 4.8-.3 4.4-.9 8.7-1.7 12.9-.9 4.2-2 8-3.4 11.3-1.4 3.3-3 6-4.8 8.1-1.8 2-3.8 3.1-6 3.1-2.6 0-4.5-.8-5.7-2.4-1.2-1.6-1.8-3.3-1.8-5.2 0-2 .5-4.1 1.5-6.2 1-2.1 2.3-4.2 4-6.3 1.7-2.1 3.7-4.2 6-6.4 2.3-2.1 4.7-4.3 7.3-6.3.5-4.9.7-9.8.5-14.6-.2-4.8-.8-8.9-1.8-12.4-.6 1.5-1.2 3.1-1.9 4.8-.7 1.7-1.5 3.3-2.2 4.8-.8 1.5-1.5 2.7-2.3 3.7-.8 1-1.4 1.5-2 1.4-1.7.1-2.9-.5-3.9-1.8-.9-1.3-1.3-3.2-1.2-5.8.1-1 .2-2.4.3-4.1.1-1.7.3-3.4.4-5.1.1-1.7.3-3.2.4-4.4.1-1.3.3-1.9.4-2 .1-.1.3-.1.8-.1s1 .1 1.5.2 1 .3 1.5.4c.5.2.8.4.9.6.1.1.1.7-.1 1.7-.1 1-.2 2.2-.4 3.6-.1 1.4-.3 3-.5 4.6-.2 1.7-.4 3.2-.5 4.6-.1 1.4-.2 2.7-.2 3.7s0 1.6.2 1.8c.4.4 1 .2 1.6-.5.6-.7 1.3-1.7 2.1-3.1.8-1.4 1.5-3 2.3-4.8.8-1.8 1.6-3.7 2.4-5.6.1-.1.3-.2.6-.2.4 0 .7.1 1.1.3.4.2.8.4 1.1.6.3.2.6.5.7.8 1.1 3 1.8 6.5 2.2 10.3s.6 7.9.4 11.9c0 .1 0 .3-.1.3 0 .1-.1.1-.1.2 1.9-1.3 3.7-2.9 5.4-4.9 1.7-2 3.4-3.9 5.2-5.7 1.8-1.9 3.7-3.5 5.8-4.8 2.5-1.2 4.9-1.8 7.6-1.8zm-40.7 52.2c1.5 0 2.9-.8 4.3-2.4 1.3-1.6 2.5-3.8 3.6-6.5 1-2.7 2-5.8 2.8-9.4.8-3.5 1.4-7.2 1.8-11-2.4 1.9-4.6 3.9-6.7 5.9-2.1 2-3.9 4-5.4 5.9-1.5 1.9-2.8 3.8-3.7 5.6-.9 1.8-1.4 3.6-1.4 5.2 0 1.9.4 3.4 1.2 4.7.7 1.3 1.9 2 3.5 2z"/>
  <path class="st8" d="M150 104.2c-2.7 0-4.8-.9-6.1-2.6-1.3-1.7-1.9-3.5-1.9-5.5 0-2.1.5-4.2 1.5-6.4 1-2.1 2.4-4.3 4.1-6.4 1.7-2.1 3.8-4.3 6-6.4 2.2-2.1 4.6-4.2 7.1-6.2.5-4.8.6-9.6.5-14.3-.1-4.1-.6-7.7-1.4-10.8-.4 1.1-.9 2.2-1.4 3.4-.7 1.7-1.5 3.4-2.2 4.8-.8 1.5-1.5 2.7-2.3 3.7-.9 1.1-1.6 1.6-2.4 1.6h-.5c-1.6 0-2.9-.7-3.8-2-1-1.4-1.4-3.5-1.3-6.1.1-1 .2-2.4.3-4.1.1-1.7.3-3.4.4-5.1.1-1.7.3-3.2.4-4.4.2-1.7.4-2.2.6-2.3.2-.1.5-.2 1.1-.2.5 0 1 .1 1.6.2.6.1 1.1.3 1.6.5.6.2.9.5 1.1.8.1.2.2.5 0 2-.1 1-.2 2.2-.4 3.6-.1 1.4-.3 3-.5 4.6-.2 1.6-.4 3.2-.5 4.6-.1 1.4-.2 2.7-.2 3.7v1.4h.1c.1 0 .3-.1.8-.5.6-.6 1.3-1.6 2-3 .7-1.3 1.5-2.9 2.3-4.7.8-1.8 1.6-3.7 2.4-5.6.1-.3.4-.5 1.2-.5.4 0 .8.2 1.3.4.4.2.8.4 1.1.6.4.3.7.6.9.9 1.1 3.1 1.9 6.6 2.3 10.5.4 3.7.6 7.6.4 11.5 1.6-1.1 3-2.5 4.4-4.2 1.7-2 3.4-3.9 5.2-5.8 1.8-1.9 3.8-3.5 5.8-4.9 2.1-1.4 4.6-2.1 7.4-2.1.3 0 .6 0 1.1.1.5.1 1 .2 1.5.4s.9.4 1.3.7c.5.5.6 1 .5 1.3-.3.7-.8.9-1.4.7-.6-.2-1.2-.5-1.7-.7-.5-.2-1.1-.3-1.8-.3-2.2 0-4.2.7-6.1 2-1.9 1.4-3.8 3-5.6 4.9-1.8 1.9-3.6 3.9-5.4 5.8-1.7 2-3.5 3.6-5.3 4.8-.3 4.3-.9 8.6-1.7 12.7-.9 4.2-2 8.1-3.4 11.4-1.4 3.4-3 6.1-4.9 8.2-1.6 2.2-3.8 3.3-6.1 3.3zM160.3 43l.2.8c1 3.5 1.6 7.8 1.8 12.5.2 4.8 0 9.7-.5 14.6v.2l-.2.1c-2.6 2.1-5 4.2-7.2 6.3-2.2 2.1-4.2 4.3-5.9 6.3-1.7 2.1-3 4.2-4 6.2-.9 2-1.4 4-1.4 6 0 1.7.6 3.4 1.7 4.9 1.1 1.5 2.9 2.2 5.3 2.2v.5-.5c2 0 3.9-1 5.6-2.9 1.8-2 3.4-4.7 4.7-7.9 1.3-3.3 2.5-7.1 3.3-11.3.9-4.2 1.4-8.5 1.7-12.8V68l.2-.1c1.7-1.1 3.4-2.6 5-4.4-1.4 1.5-2.9 2.8-4.5 3.8l-.8.5V67c0-.1 0-.3.1-.4v-.1c.1-4.1 0-8.1-.4-11.9-.4-3.8-1.2-7.3-2.2-10.2-.1-.2-.3-.3-.5-.5-.3-.2-.6-.4-1-.6-.3-.2-.7-.2-1-.3.1 0 0 0 0 0zm29.1 7c-2.6 0-4.9.7-6.9 1.9-2 1.3-3.9 2.9-5.7 4.8-1.8 1.8-3.5 3.8-5.1 5.7 1.5-1.7 3.1-3.4 4.7-5.1 1.8-1.9 3.8-3.6 5.8-5s4.3-2.2 6.7-2.2c.9 0 1.6.1 2.2.4.5.2 1.1.5 1.6.7h.1v-.1s0-.1-.2-.2c-.2-.2-.6-.4-1-.6-.4-.2-.9-.3-1.3-.4-.4.1-.7.1-.9.1zm-40.9-14.1c-.1.2-.1.6-.3 1.6-.1 1.2-.3 2.7-.4 4.4-.1 1.7-.3 3.4-.4 5.1-.1 1.7-.3 3.1-.3 4.1-.1 2.4.2 4.2 1.1 5.4.8 1.2 1.9 1.7 3.4 1.6.3 0 .8-.2 1.6-1.3.3-.4.7-.9 1-1.5-.3.4-.6.8-.9 1.1-.9.9-1.7 1-2.3.5-.3-.3-.4-.7-.3-2.2 0-1 .1-2.3.2-3.7.1-1.4.3-3 .5-4.7.2-1.6.4-3.2.5-4.6.1-1.4.3-2.6.4-3.6.1-.9.1-1.3.1-1.4-.1-.1-.2-.2-.6-.4-.4-.2-.9-.3-1.4-.4-.5-.1-1-.2-1.4-.2-.2.2-.4.2-.5.2zm.3 66.3c-1.8 0-3.2-.7-4.1-2.1-.8-1.3-1.3-3-1.3-4.9 0-1.7.5-3.6 1.5-5.4.9-1.9 2.2-3.8 3.8-5.7 1.6-1.9 3.4-3.9 5.5-6 2.1-2 4.3-4 6.7-5.9l1-.8-.1 1.2c-.4 3.8-1.1 7.5-1.9 11-.8 3.5-1.7 6.7-2.8 9.4-1.1 2.8-2.3 5-3.6 6.6-1.5 1.7-3.1 2.6-4.7 2.6zm11.7-28.6c-2 1.7-3.9 3.4-5.7 5.1-2.1 2-3.9 3.9-5.4 5.9-1.5 1.9-2.7 3.8-3.7 5.6-.9 1.7-1.3 3.4-1.4 5 0 1.8.4 3.2 1.1 4.4.7 1.1 1.8 1.7 3.2 1.7 1.3 0 2.6-.8 3.9-2.2 1.3-1.6 2.5-3.7 3.5-6.4s1.9-5.8 2.7-9.3c.8-3.2 1.4-6.4 1.8-9.8zm-138.4 14h5.2c3.3 0 5.7 2.3 5.7 5.3 0 3.1-2.5 5.3-5.7 5.3h-5.2v-1.7h1.2v-7.2h-1.2v-1.7zm3 1.8v7.2h2.1c2.1 0 3.7-1.5 3.7-3.6s-1.5-3.6-3.7-3.6h-2.1zm17.4 1.2v-1.2h-3.4v3h2.6v1.7h-2.6v2.6h3.4v-1.2h1.6v2.9H36v-1.7h1.2v-7.2H36v-1.7h8.1v2.9l-1.6-.1zm6.6 4.4v.2c0 1.2 1.1 1.6 2.1 1.6 1.2 0 1.8-.6 1.8-1.3 0-.7-.4-1.1-2.3-1.9-2.1-.8-2.8-1.8-2.8-3.2 0-1.5 1.2-2.9 3.3-2.9 1.4 0 1.8.8 1.9.9l-.1-.7h1.7v3.1H53v-.5c-.1-.9-.8-1.1-1.6-1.1-1.1 0-1.5.6-1.5 1.2 0 .7.6 1.2 2.1 1.8 2.4.9 3.1 1.9 3.1 3.3 0 1.9-1.5 3.1-3.3 3.1-2.1 0-2.6-1.1-2.6-1.1l.1.9h-1.7v-3.3l1.5-.1zm9.2-7.3h4.2v1.7h-1.2v7.2h1.2v1.7h-4.2v-1.7h1.2v-7.2h-1.2v-1.7zm15.5 3.7c0-1.1-1-2-2.7-2-2.2 0-3.5 1.6-3.5 3.8 0 2.1 1.6 3.7 3.8 3.7 1 0 1.9-.2 2.4-.4v-1.9h-3v-1.7h4.8v4.6s-1.6 1.2-4.1 1.2c-3.6 0-6-2.4-6-5.5s2.4-5.5 5.2-5.5c2.6 0 3 1.1 3.1 1.3l-.1-1.3h1.7v3.8l-1.6-.1zm12.7-3.6h4.2v1.7h-1.2v8.9h-1.4l-5.8-7v5.3h1.2v1.7h-4.2v-1.7h1.2v-7.2h-1.2v-1.7h2.3l6.1 7.1v-5.4h-1.2v-1.7zm23.3 10.1s-1.4.9-3.6.9c-3.4 0-6-2.3-6-5.5 0-3.1 2.4-5.5 5.2-5.5 2.6 0 3 1.1 3.1 1.3l-.1-1.1h1.7v3.6h-1.7c-.1-1.2-1.3-2-2.7-2-2.2 0-3.5 1.6-3.5 3.8 0 2.1 1.7 3.7 3.7 3.7 2.2 0 3.3-.7 3.3-.7l.6 1.5zm9-10.2c3.3 0 5.7 2.3 5.7 5.5 0 3.1-2.5 5.5-5.7 5.5-3.3 0-5.7-2.4-5.7-5.5 0-3 2.4-5.5 5.7-5.5zm-.1 9.4c2.1 0 3.7-1.6 3.7-3.8 0-2.2-1.5-3.8-3.7-3.9-2.1 0-3.7 1.6-3.7 3.8.1 2.2 1.7 3.9 3.7 3.9zm10 1.8c-.7 0-1.1-.5-1.1-1.1 0-.6.5-1.1 1.1-1.1.6 0 1.1.5 1.1 1.1 0 .6-.5 1.1-1.1 1.1zm66.8-83.1c1.5-1 3.2-1.1 3.8-.1 1.9 3-.9 7.7-6.3 12.2-5.2 4.5-8.3 6.7-11.4 8.8-.4.3-.8-.3-.3-.6 5.7-11.2 10.4-17.9 14.2-20.3zm11.7 21.6c1.8.3 3.1 1.4 2.9 2.6-.7 3.4-5.9 5-13 4.6-6.9-.3-10.7-.8-14.3-1.4-.5-.1-.3-.8.2-.7 11.8-4.3 19.9-6 24.2-5.1zm-53.4-17.7c-.6-1.7-.3-3.4.8-3.8 3.3-1.1 7.3 2.6 10.5 8.9 3.2 6.1 4.7 9.6 5.9 13.1.2.4-.5.7-.7.2-9.5-8.1-15-14.2-16.5-18.4zm20.8-11c.7-1.7 2-2.8 3-2.4 3.3 1.3 3.8 6.7 2.2 13.6-1.5 6.7-2.7 10.3-4.1 13.8-.2.4-.8.2-.6-.3-1.9-12.3-2.1-20.6-.5-24.7z"/>
  <defs>
    <path id="SVGID_5_" d="M21 549.7h170.4v170.4H21z"/>
  </defs>
  <clipPath id="SVGID_4_">
    <use xlink:href="#SVGID_5_" overflow="visible"/>
  </clipPath>
  <defs>
    <path id="SVGID_7_" d="M215.1 549.7h170.4v170.4H215.1z"/>
  </defs>
  <clipPath id="SVGID_6_">
    <use xlink:href="#SVGID_7_" overflow="visible"/>
  </clipPath>
</svg>
